<svg id="visual" viewBox="0 0 1440 900" width="1440" height="900" xmlns="http://www.w3.org/2000/svg" xmlns:xlink="http://www.w3.org/1999/xlink" version="1.1"><rect x="0" y="0" width="1440" height="900" fill="#ffffff"></rect><path d="M0 695L21.8 689.2C43.7 683.3 87.3 671.7 131 670.2C174.7 668.7 218.3 677.3 262 672.8C305.7 668.3 349.3 650.7 393 646.5C436.7 642.3 480.3 651.7 524 663.3C567.7 675 611.3 689 654.8 690.2C698.3 691.3 741.7 679.7 785.2 667.8C828.7 656 872.3 644 916 638.2C959.7 632.3 1003.3 632.7 1047 646C1090.7 659.3 1134.3 685.7 1178 686.5C1221.7 687.3 1265.3 662.7 1309 650.5C1352.7 638.3 1396.3 638.7 1418.2 638.8L1440 639L1440 901L1418.2 901C1396.3 901 1352.7 901 1309 901C1265.3 901 1221.7 901 1178 901C1134.3 901 1090.7 901 1047 901C1003.3 901 959.7 901 916 901C872.3 901 828.7 901 785.2 901C741.7 901 698.3 901 654.8 901C611.3 901 567.7 901 524 901C480.3 901 436.7 901 393 901C349.3 901 305.7 901 262 901C218.3 901 174.7 901 131 901C87.3 901 43.7 901 21.8 901L0 901Z" fill="#182848" stroke-linecap="round" stroke-linejoin="miter"></path></svg>